<?xml version="1.0" encoding="UTF-8"?>
<svg clip-rule="evenodd" stroke-linejoin="round" stroke-miterlimit="2" version="1.1" viewBox="0 0 512 512" xml:space="preserve" xmlns="http://www.w3.org/2000/svg"> <path d="m277.33 384c0 11.781-9.551 21.332-21.332 21.332s-21.332-9.551-21.332-21.332 9.551-21.332 21.332-21.332 21.332 9.551 21.332 21.332z" fill="#ff6000" stroke="#ff6000" stroke-width="1px"/> <path d="m256 314.67c-8.832 0-16-7.168-16-16v-21.547c0-20.308 12.887-38.508 32.02-45.269 25.515-8.981 42.648-36.141 42.648-55.852 0-32.363-26.305-58.668-58.668-58.668s-58.668 26.305-58.668 58.668c0 8.832-7.168 16-16 16s-16-7.168-16-16c0-49.984 40.684-90.668 90.668-90.668s90.668 40.684 90.668 90.668c0 35.586-28.098 73.387-63.98 86.039-6.379 2.238-10.688 8.316-10.688 15.102v21.527c0 8.832-7.168 16-16 16z" fill="#ff6000" stroke="#ff6000" stroke-width="1px"/> <path d="M453.332,512L58.668,512C26.305,512 0,485.695 0,453.332L0,58.668C0,26.305 26.305,0 58.668,0L453.332,0C485.695,0 512,26.305 512,58.668L512,453.332C512,485.695 485.695,512 453.332,512ZM58.668,32C43.969,32 32,43.969 32,58.668L32,453.332C32,468.031 43.969,480 58.668,480L453.332,480C468.031,480 480,468.031 480,453.332L480,58.668C480,43.969 468.031,32 453.332,32L58.668,32Z" fill="#ff6000" stroke="#ff6000" stroke-width="1px"/> </svg>
